<svg width="51" height="51" viewBox="0 0 51 51" fill="none" xmlns="http://www.w3.org/2000/svg">
<g id="add">
<path id="Icon" d="M25.5956 8.95935C26.7462 8.95935 27.679 9.89209 27.679 11.0427V23.5427H40.179C41.3295 23.5427 42.2623 24.4754 42.2623 25.626C42.2623 26.7766 41.3295 27.7094 40.179 27.7094H27.679V40.2094C27.679 41.3599 26.7462 42.2927 25.5956 42.2927C24.445 42.2927 23.5123 41.3599 23.5123 40.2094V27.7094H11.0123C9.86169 27.7094 8.92896 26.7766 8.92896 25.626C8.92896 24.4754 9.86169 23.5427 11.0123 23.5427H23.5123V11.0427C23.5123 9.89209 24.445 8.95935 25.5956 8.95935Z" fill="#E7E7E7"/>
</g>
</svg>
