<svg width="20" height="20" viewBox="20 20 0 	0" fill="none" xmlns="http://www.w3.org/2000/svg">
<g clip-path="url(#clip0_102_1190)">
<path fill-rule="evenodd" clip-rule="evenodd" d="M13.2333 21.7667C12.7652 21.2979 12.5022 20.6625 12.5022 20C12.5022 19.3375 12.7652 18.7021 13.2333 18.2333L22.66 8.80335C23.129 8.33458 23.765 8.07132 24.4281 8.07147C24.7564 8.07155 25.0815 8.1363 25.3848 8.26201C25.6881 8.38773 25.9637 8.57196 26.1958 8.80418C26.4279 9.0364 26.612 9.31207 26.7376 9.61544C26.8632 9.91881 26.9278 10.2439 26.9277 10.5723C26.9276 10.9006 26.8629 11.2257 26.7372 11.529C26.6114 11.8323 26.4272 12.1079 26.195 12.34L18.535 20L26.195 27.66C26.4339 27.8905 26.6245 28.1663 26.7556 28.4712C26.8868 28.7762 26.9559 29.1042 26.9589 29.4362C26.962 29.7681 26.8989 30.0973 26.7733 30.4046C26.6478 30.7119 26.4623 30.9911 26.2277 31.226C25.993 31.4608 25.714 31.6466 25.4068 31.7724C25.0996 31.8983 24.7705 31.9617 24.4385 31.959C24.1066 31.9562 23.7785 31.8874 23.4734 31.7565C23.1683 31.6257 22.8924 31.4354 22.6617 31.1967L13.23 21.7667H13.2333Z" fill="black"/>
</g>
<defs>
<clipPath id="clip0_102_1190">
<rect width="40" height="40" fill="white" />
</clipPath>
</defs>
</svg>
