<svg width="51" height="51" viewBox="0 0 51 51" fill="none" xmlns="http://www.w3.org/2000/svg">
<path d="M6.17236 12.3748C9.5057 12.3748 12.1724 9.66416 12.1724 6.36975C12.1724 3.07534 9.46403 0.364746 6.17236 0.364746C2.8807 0.364746 0.172363 3.07534 0.172363 6.36975C0.172363 9.66416 2.8807 12.3748 6.17236 12.3748ZM17.8807 16.9202V50.3647H28.214V33.851C28.214 29.4723 29.0474 25.2605 34.4224 25.2605C39.7974 25.2605 39.7974 30.2647 39.7974 34.1012V50.3647H50.1724V32.0161C50.1724 23.0086 48.2557 16.0862 37.7557 16.0862C32.714 16.0862 29.339 18.8385 27.964 21.4657H27.839V16.8785H17.9224L17.8807 16.9202ZM1.0057 16.9202H11.3807V50.3647H1.0057V16.9202Z" fill="#FFCA00"/>
</svg>
