<svg width="78" height="78" viewBox="0 0 78 78" fill="none" xmlns="http://www.w3.org/2000/svg">
<g id="mingcute:paint-brush-fill" clip-path="url(#clip0_104_408)">
<g id="Group">
<path id="Vector" fill-rule="evenodd" clip-rule="evenodd" d="M71.5554 12.5905L69.6379 17.7287C68.8516 19.5701 68.0586 21.4085 67.2589 23.244C65.0554 27.9727 62.0199 33.501 58.3961 37.3165C54.9316 40.9565 49.7056 44.3137 45.5196 46.696C46.0716 49.3375 45.9565 52.0749 45.1848 54.6608C44.4131 57.2466 43.009 59.5993 41.0996 61.5062C33.7221 68.8837 25.4801 68.8837 19.3506 67.0637C14.7031 65.6792 10.8811 63.1702 7.2281 60.0827C7.07794 59.9565 6.95878 59.7975 6.87982 59.618C6.80086 59.4384 6.7642 59.2431 6.77268 59.0471C6.78116 58.8512 6.83455 58.6598 6.92872 58.4877C7.0229 58.3156 7.15535 58.1675 7.31585 58.0547L8.94085 56.8782C11.1248 55.2305 13.2471 53.2187 13.7833 50.5245C14.1571 47.5182 14.3683 45.877 14.4236 45.6072C14.8721 43.368 15.8211 40.8265 18.1221 38.5222C20.0287 36.6133 22.3809 35.2096 24.9661 34.4379C27.5513 33.6662 30.2881 33.5508 32.9291 34.1022C35.3113 29.9195 38.6686 24.6935 42.3086 21.2322C46.1241 17.6052 51.6523 14.5697 56.3811 12.3662L61.8964 9.98399L67.0346 8.06974C67.6644 7.85269 68.3426 7.81695 68.9918 7.96661C69.6409 8.11627 70.235 8.44531 70.7062 8.91621C71.1775 9.38711 71.5069 9.98094 71.6571 10.63C71.8072 11.2791 71.772 11.9572 71.5554 12.5872V12.5905ZM38.9351 36.7022C40.4851 37.792 41.8344 39.1423 42.9228 40.6932C44.1968 39.9555 45.5066 39.156 46.7904 38.3142L46.6928 38.0965C46.158 36.9725 45.4322 35.9499 44.5478 35.074C43.7674 34.2898 42.872 33.629 41.8926 33.1142L41.3109 32.8347C40.4691 34.1185 39.6728 35.4282 38.9351 36.7022ZM63.1216 16.5035C61.8769 17.0202 60.5216 17.6085 59.1241 18.2585C54.5481 20.3937 49.8096 23.0685 46.7871 25.9415C46.2543 26.4526 45.7447 26.9872 45.2596 27.5437C46.4361 28.1937 47.8011 29.1362 49.1434 30.4817C50.4888 31.824 51.4314 33.189 52.0813 34.3655C52.6599 33.8585 53.1993 33.3482 53.6836 32.838C56.5566 29.8155 59.2313 25.077 61.3666 20.4977C62.0166 19.1002 62.6049 17.7482 63.1216 16.5035Z" fill="white"/>
</g>
</g>
<defs>
<clipPath id="clip0_104_408">
<rect width="78" height="78" fill="white"/>
</clipPath>
</defs>
</svg>
