<svg width="82" height="64" viewBox="0 0 82 64" fill="none" xmlns="http://www.w3.org/2000/svg">
<path id="Vector" d="M22.378 22.1509L10.1639 32.0004L22.378 41.8499C22.783 42.1712 23.1184 42.5669 23.3647 43.0142C23.6109 43.4615 23.7633 43.9516 23.8129 44.4561C23.8625 44.9607 23.8084 45.4698 23.6537 45.954C23.499 46.4383 23.2468 46.8881 22.9116 47.2775C22.5764 47.667 22.1649 47.9883 21.7007 48.2231C21.2366 48.4579 20.729 48.6014 20.2072 48.6454C19.6855 48.6893 19.1599 48.6329 18.6608 48.4793C18.1617 48.3258 17.699 48.0781 17.2992 47.7506L1.4282 34.9508C0.981198 34.5904 0.621555 34.1393 0.374746 33.6295C0.127937 33.1196 0 32.5634 0 32.0004C0 31.4374 0.127937 30.8812 0.374746 30.3714C0.621555 29.8615 0.981198 29.4104 1.4282 29.0501L17.2992 16.2502C18.1089 15.6081 19.148 15.3016 20.1901 15.3975C21.2322 15.4935 22.1929 15.9842 22.8629 16.7626C23.5329 17.541 23.8579 18.5441 23.767 19.5534C23.6762 20.5627 23.1769 21.4963 22.378 22.1509ZM80.5718 29.0501L64.7008 16.2502C64.301 15.9227 63.8383 15.675 63.3392 15.5215C62.8401 15.3679 62.3145 15.3115 61.7928 15.3555C61.271 15.3994 60.7634 15.543 60.2993 15.7777C59.8351 16.0125 59.4236 16.3338 59.0884 16.7233C58.7532 17.1127 58.501 17.5625 58.3463 18.0468C58.1916 18.531 58.1375 19.0401 58.1871 19.5447C58.2367 20.0493 58.3891 20.5393 58.6353 20.9866C58.8816 21.434 59.217 21.8297 59.622 22.1509L71.8361 32.0004L59.622 41.8499C59.217 42.1712 58.8816 42.5669 58.6353 43.0142C58.3891 43.4615 58.2367 43.9516 58.1871 44.4561C58.1375 44.9607 58.1916 45.4698 58.3463 45.954C58.501 46.4383 58.7532 46.8881 59.0884 47.2775C59.4236 47.667 59.8351 47.9883 60.2993 48.2231C60.7634 48.4579 61.271 48.6014 61.7928 48.6454C62.3145 48.6893 62.8401 48.6329 63.3392 48.4793C63.8383 48.3258 64.301 48.0781 64.7008 47.7506L80.5718 34.9508C81.0188 34.5904 81.3784 34.1393 81.6253 33.6295C81.8721 33.1196 82 32.5634 82 32.0004C82 31.4374 81.8721 30.8812 81.6253 30.3714C81.3784 29.8615 81.0188 29.4104 80.5718 29.0501ZM52.9364 0.231224C52.4466 0.0588443 51.9265 -0.0184643 51.4058 0.00371434C50.8852 0.025893 50.3741 0.147125 49.9019 0.360484C49.4296 0.573843 49.0055 0.87515 48.6536 1.24719C48.3017 1.61924 48.029 2.05473 47.851 2.5288L26.6896 58.8481C26.3309 59.805 26.3795 60.8606 26.8247 61.7828C27.2698 62.7051 28.0752 63.4186 29.0637 63.7664C29.4976 63.9215 29.9567 64.0006 30.4193 64C31.2339 64.0001 32.0289 63.7576 32.6961 63.3053C33.3634 62.8531 33.8707 62.213 34.149 61.472L55.3104 5.15276C55.4885 4.67875 55.5684 4.17543 55.5455 3.67154C55.5226 3.16765 55.3973 2.67307 55.1768 2.21604C54.9564 1.75901 54.645 1.34849 54.2606 1.00793C53.8762 0.667373 53.4262 0.403445 52.9364 0.231224Z" fill="white"/>
</svg>
