<svg width="76" height="76" viewBox="0 0 76 76" fill="none" xmlns="http://www.w3.org/2000/svg">
<g id="fluent:people-12-filled">
<path id="Vector" d="M25.3335 38C28.6929 38 31.9147 36.6655 34.2902 34.29C36.6656 31.9146 38.0002 28.6928 38.0002 25.3334C38.0002 21.9739 36.6656 18.7521 34.2902 16.3767C31.9147 14.0012 28.6929 12.6667 25.3335 12.6667C21.9741 12.6667 18.7523 14.0012 16.3768 16.3767C14.0013 18.7521 12.6668 21.9739 12.6668 25.3334C12.6668 28.6928 14.0013 31.9146 16.3768 34.29C18.7523 36.6655 21.9741 38 25.3335 38ZM53.8335 38C56.3531 38 58.7694 36.9991 60.551 35.2175C62.3326 33.4359 63.3335 31.0196 63.3335 28.5C63.3335 25.9805 62.3326 23.5641 60.551 21.7825C58.7694 20.0009 56.3531 19 53.8335 19C51.3139 19 48.8976 20.0009 47.116 21.7825C45.3344 23.5641 44.3335 25.9805 44.3335 28.5C44.3335 31.0196 45.3344 33.4359 47.116 35.2175C48.8976 36.9991 51.3139 38 53.8335 38ZM14.2502 44.3334C9.88016 44.3334 6.3335 47.88 6.3335 52.25C6.3335 52.25 6.3335 66.5 25.3335 66.5C40.3942 66.5 43.5165 57.5447 44.1625 53.8334C44.3335 52.8644 44.3335 52.25 44.3335 52.25C44.3335 47.88 40.7868 44.3334 36.4168 44.3334H14.2502ZM50.6415 54.4667C50.5686 55.6148 50.3776 56.7524 50.0715 57.8614C49.6725 59.2737 49.0138 60.9647 47.9055 62.7064C49.8488 63.1417 51.8358 63.3521 53.8272 63.3334C69.6605 63.3334 69.6605 52.25 69.6605 52.25C69.6605 47.88 66.1138 44.3334 61.7438 44.3334H48.2602C49.7802 46.6007 50.6605 49.3177 50.6605 52.25V53.8334L50.6415 54.4667Z" fill="white"/>
</g>
</svg>
