<svg width="40" height="40" viewBox="0 0 40 40" fill="none" xmlns="http://www.w3.org/2000/svg">
<g clip-path="url(#clip0_102_1194)">
<path fill-rule="evenodd" clip-rule="evenodd" d="M26.7667 18.2333C27.2348 18.7021 27.4978 19.3375 27.4978 20C27.4978 20.6625 27.2348 21.2979 26.7667 21.7667L17.34 31.1966C16.871 31.6654 16.235 31.9287 15.5719 31.9285C15.2436 31.9284 14.9185 31.8637 14.6152 31.738C14.3119 31.6123 14.0363 31.428 13.8042 31.1958C13.5721 30.9636 13.388 30.6879 13.2624 30.3846C13.1368 30.0812 13.0722 29.7561 13.0723 29.4277C13.0724 29.0994 13.1371 28.7743 13.2628 28.471C13.3886 28.1677 13.5728 27.8921 13.805 27.66L21.465 20L13.805 12.34C13.5661 12.1095 13.3755 11.8337 13.2444 11.5288C13.1132 11.2238 13.0441 10.8958 13.0411 10.5638C13.038 10.2319 13.1011 9.90267 13.2267 9.59537C13.3522 9.28808 13.5377 9.00886 13.7723 8.77402C14.007 8.53918 14.286 8.35341 14.5932 8.22757C14.9004 8.10172 15.2295 8.03831 15.5615 8.04104C15.8934 8.04377 16.2215 8.11257 16.5266 8.24345C16.8317 8.37433 17.1076 8.56465 17.3383 8.80331L26.77 18.2333L26.7667 18.2333Z" fill="black"/>
</g>
<defs>
<clipPath id="clip0_102_1194">
<rect width="40" height="40" fill="white" transform="translate(40 40) rotate(-180)"/>
</clipPath>
</defs>
</svg>
