<svg width="51" height="50" viewBox="0 0 51 50" fill="none" xmlns="http://www.w3.org/2000/svg">
<path d="M28.2729 0.00307588C30.0971 -0.00392443 31.9214 0.0144102 33.7451 0.0580742L34.2301 0.0755735C34.7901 0.0955728 35.3425 0.120572 36.01 0.150571C38.6699 0.275567 40.4848 0.695553 42.0772 1.31303C43.7271 1.94801 45.117 2.80798 46.507 4.19793C47.7778 5.44691 48.7614 6.95771 49.3893 8.62528C50.0068 10.2177 50.4268 12.0352 50.5518 14.6951C50.5818 15.3601 50.6068 15.915 50.6268 16.475L50.6418 16.96C50.6862 18.7829 50.7053 20.6064 50.6993 22.4298L50.7018 24.2948V27.5696C50.7079 29.3939 50.6888 31.2182 50.6443 33.042L50.6293 33.5269C50.6093 34.0869 50.5843 34.6394 50.5543 35.3069C50.4293 37.9668 50.0043 39.7817 49.3893 41.3742C48.7635 43.0435 47.7797 44.5556 46.507 45.804C45.2569 47.0748 43.7454 48.0583 42.0772 48.6864C40.4848 49.3039 38.6699 49.7239 36.01 49.8489C35.3425 49.8789 34.7901 49.9039 34.2301 49.9239L33.7451 49.9389C31.9214 49.9833 30.0972 50.0025 28.2729 49.9964L26.408 49.9989H23.1357C21.3114 50.005 19.4872 49.9859 17.6635 49.9414L17.1785 49.9264C16.585 49.9049 15.9917 49.8799 15.3986 49.8514C12.7387 49.7264 10.9238 49.3014 9.32888 48.6864C7.66068 48.0598 6.14964 47.076 4.90161 45.804C3.62929 44.5548 2.64478 43.043 2.01676 41.3742C1.39929 39.7817 0.979309 37.9668 0.854315 35.3069C0.826474 34.7137 0.801475 34.1204 0.779319 33.5269L0.76682 33.042C0.720732 31.2182 0.699897 29.3939 0.704323 27.5696V22.4298C0.697346 20.6064 0.715681 18.7829 0.759321 16.96L0.77682 16.475C0.796819 15.915 0.821817 15.3601 0.851816 14.6951C0.976809 12.0327 1.39679 10.2202 2.01426 8.62528C2.64266 6.95689 3.62908 5.4465 4.90411 4.20043C6.15128 2.92736 7.66137 1.94194 9.32888 1.31303C10.9238 0.695553 12.7362 0.275567 15.3986 0.150571L17.1785 0.0755735L17.6635 0.0630743C19.4863 0.0170079 21.3097 -0.003827 23.1332 0.00057615L28.2729 0.00307588ZM25.703 12.5026C24.0469 12.4792 22.4026 12.7852 20.8657 13.4028C19.3289 14.0204 17.9301 14.9373 16.7506 16.1002C15.5712 17.2631 14.6346 18.6488 13.9954 20.1768C13.3561 21.7048 13.0269 23.3446 13.0269 25.001C13.0269 26.6573 13.3561 28.2971 13.9954 29.8252C14.6346 31.3532 15.5712 32.7389 16.7506 33.9018C17.9301 35.0647 19.3289 35.9816 20.8657 36.5992C22.4026 37.2168 24.0469 37.5227 25.703 37.4993C29.0181 37.4993 32.1973 36.1824 34.5414 33.8383C36.8855 31.4941 38.2024 28.3148 38.2024 24.9997C38.2024 21.6846 36.8855 18.5053 34.5414 16.1612C32.1973 13.8171 29.0181 12.5026 25.703 12.5026ZM25.703 17.5025C26.6993 17.4841 27.6891 17.6645 28.6149 18.033C29.5406 18.4015 30.3836 18.9508 31.0947 19.6488C31.8058 20.3468 32.3706 21.1794 32.7563 22.0982C33.1419 23.0169 33.3407 24.0033 33.3408 24.9997C33.341 25.9961 33.1426 26.9826 32.7573 27.9014C32.3719 28.8203 31.8073 29.6532 31.0965 30.3514C30.3857 31.0496 29.5428 31.5992 28.6172 31.968C27.6916 32.3368 26.7018 32.5175 25.7055 32.4995C23.7165 32.4995 21.809 31.7093 20.4025 30.3028C18.9961 28.8964 18.2059 26.9888 18.2059 24.9997C18.2059 23.0107 18.9961 21.1031 20.4025 19.6966C21.809 18.2901 23.7165 17.5 25.7055 17.5L25.703 17.5025ZM38.8274 8.75278C38.0209 8.78506 37.2582 9.12814 36.699 9.71017C36.1398 10.2922 35.8275 11.068 35.8275 11.8752C35.8275 12.6823 36.1398 13.4581 36.699 14.0402C37.2582 14.6222 38.0209 14.9653 38.8274 14.9976C39.6561 14.9976 40.4509 14.6683 41.037 14.0823C41.623 13.4963 41.9522 12.7014 41.9522 11.8727C41.9522 11.0439 41.623 10.2491 41.037 9.66304C40.4509 9.07701 39.6561 8.74778 38.8274 8.74778V8.75278Z" fill="#FFCA00"/>
</svg>
